<?xml version="1.0" encoding="utf-8"?>
<!-- Generator: Adobe Illustrator 14.0.0, SVG Export Plug-In . SVG Version: 6.00 Build 43363)  -->
<!DOCTYPE svg PUBLIC "-//W3C//DTD SVG 1.1//EN" "http://www.w3.org/Graphics/SVG/1.1/DTD/svg11.dtd">
<svg version="1.1" id="Layer_1" xmlns="http://www.w3.org/2000/svg" xmlns:xlink="http://www.w3.org/1999/xlink" x="0px" y="0px"
	 width="69px" height="21.5px" viewBox="0 0 69 21.5" enable-background="new 0 0 69 21.5" xml:space="preserve">
<g>
	<polygon fill="#FFFFFF" points="7.7,9 2.7,9 2.7,3.7 0.3,3.7 0.3,16.7 2.7,16.7 2.7,11.3 7.7,11.3 7.7,16.7 10.1,16.7 10.1,3.7 
		7.7,3.7 	"/>
	<path fill="#FFFFFF" d="M17.7,12.5c0,1.1-0.9,2-2,2c-1.1,0-2-0.9-2-2V6.9h-2.2v5.6c0,2.3,1.9,4.2,4.2,4.2c2.3,0,4.2-1.9,4.2-4.2
		V6.9h-2.2V12.5z"/>
	<path fill="#FFFFFF" d="M26.2,6.9c-1.1,0-1.9,0.3-2.6,1.1V3.7h-2.3v8c0,3,2.2,5,4.6,5c2.7,0,5.1-2.1,5.1-4.9
		C30.9,9,28.8,6.9,26.2,6.9z M26.3,14.6c-1.5,0-2.7-1.3-2.7-2.8S24.8,9,26.3,9c1.3,0,2.5,1.3,2.5,2.8S27.6,14.6,26.3,14.6z"/>
	<path fill="#FFFFFF" d="M34.8,7.5C34.8,6.4,35.6,6,36.4,6C37.1,6,38,6.5,38.5,7.1L40,5.4c-0.7-1-2.2-1.6-3.5-1.6
		c-2.4,0-4.2,1.5-4.2,3.8c0,4.4,5.4,3,5.4,5.5c0,0.7-0.7,1.5-1.601,1.5c-1.301,0-1.801-0.7-2.399-1.3L32,14.9
		c1.1,1.3,2.4,1.9,3.9,1.9c2.3,0,4.199-1.5,4.199-3.7C40.2,8.1,34.8,9.6,34.8,7.5z"/>
	<path fill="#FFFFFF" d="M46.1,6.8c-2.398,0-4.6,2-4.6,5v8h2.2v-4.4c0.7,0.7,1.5,1.1,2.6,1.1c2.5,0,4.7-2.1,4.7-4.9
		C51.2,8.9,48.8,6.8,46.1,6.8z M46.5,14.5c-1.5,0-2.7-1.3-2.7-2.8s1.2-2.8,2.7-2.8c1.3,0,2.5,1.3,2.5,2.8S47.8,14.5,46.5,14.5z"/>
	<path fill="#FFFFFF" d="M67.9,14.6c-1.301,0-1.7-0.6-1.7-1.5V9.2h2.1v-2h-2.1V4.6l-2.3,1.1v8c0,2,1.398,3.1,3.398,3.1
		c0.301,0,0.7,0,0.9-0.1l0.5-2C68.4,14.6,68.2,14.6,67.9,14.6z"/>
	<path fill="#FFFFFF" d="M62,9.3c-0.5-0.7-1.1-1.3-1.8-1.8C59.6,7.2,59,7,58.3,6.9V4.5C59,4.2,59.4,3.6,59.4,2.8
		C59.4,1.8,58.6,1,57.6,1s-1.8,0.8-1.8,1.8c0,0.7,0.4,1.4,1.101,1.7v2.4C56.3,7,55.8,7.2,55.2,7.4C54.1,6.6,50.8,4,48.8,2.5
		C48.9,2.3,48.9,2.2,48.9,2c0-1.1-0.9-2-2-2c-1.102,0-2,0.9-2,2s0.898,2,2,2C47.3,4,47.6,3.9,48,3.7L48.4,4L54.1,8.2
		c-0.3,0.3-0.6,0.6-0.8,0.9c-0.5,0.7-0.7,1.5-0.7,2.4c0,0.1,0,0.1,0,0.2c0,0.6,0.102,1.2,0.301,1.7s0.399,0.9,0.699,1.3L51.7,16.6
		c-0.2-0.1-0.3-0.1-0.5-0.1c-0.4,0-0.8,0.1-1.101,0.5c-0.301,0.3-0.5,0.7-0.5,1.1c0,0.4,0.101,0.801,0.5,1.102
		c0.301,0.3,0.699,0.5,1.101,0.5c0.399,0,0.8-0.102,1.1-0.5c0.3-0.301,0.5-0.7,0.5-1.102c0-0.1,0-0.3-0.1-0.5l2-2
		c0.3,0.2,0.6,0.3,0.899,0.5c0.601,0.3,1.301,0.4,2,0.4c0.101,0,0.101,0,0.101,0c0.899,0,1.6-0.2,2.3-0.6c0.8-0.4,1.4-1,1.8-1.7
		c0.5-0.7,0.7-1.5,0.7-2.4c0,0,0,0,0-0.1C62.5,10.9,62.4,10.1,62,9.3z M59.5,13.5c-0.5,0.6-1.1,0.9-1.8,0.9
		c-0.101,0-0.101,0-0.101,0c-0.399,0-0.801-0.1-1.199-0.3c-0.4-0.3-0.7-0.5-1-0.9c-0.301-0.4-0.5-0.8-0.5-1.3c0-0.1,0-0.1,0-0.1
		c0-0.5,0.1-0.9,0.3-1.3c0.2-0.5,0.5-0.8,0.899-1.1C56.5,9.1,57,9,57.4,9c0,0,0,0,0.1,0c0.5,0,0.9,0.1,1.3,0.3
		c0.4,0.2,0.7,0.5,1,0.9c0.3,0.4,0.4,0.8,0.5,1.3c0,0.1,0,0.2,0,0.3C60.2,12.3,60,12.9,59.5,13.5z"/>
</g>
</svg>
