<svg id="Layer_1" data-name="Layer 1" xmlns="http://www.w3.org/2000/svg" viewBox="0 0 389.13 163.71"><defs><style>.cls-1{fill:#00bf6f;}</style></defs><title>Stacked_Sabaeus_RGB</title><path id="_Compound_Path_" data-name="&lt;Compound Path&gt;" class="cls-1" d="M30.05,175.06l4.08-4.85c3.7,3.2,7.39,5,12.19,5,4.19,0,6.84-1.93,6.84-4.85v-.11c0-2.76-1.55-4.25-8.72-5.9-8.22-2-12.85-4.41-12.85-11.53v-.11c0-6.62,5.52-11.2,13.18-11.2a21.4,21.4,0,0,1,14,4.85l-3.64,5.13c-3.47-2.59-6.95-4-10.48-4-4,0-6.29,2-6.29,4.58v.11c0,3,1.77,4.3,9.16,6.07C55.7,160.27,60,163.2,60,169.6v.11c0,7.22-5.68,11.53-13.79,11.53A23.79,23.79,0,0,1,30.05,175.06Z" transform="translate(-30.05 -31.05)"/><path id="_Compound_Path_2" data-name="&lt;Compound Path&gt;" class="cls-1" d="M64.41,170.09V151.56h6.67v16.55c0,4.52,2.26,7.11,6.23,7.11s6.56-2.7,6.56-7.22V151.56h6.67v29.12H83.88v-3a11.48,11.48,0,0,1-9.1,3.61C68.21,181.29,64.41,176.88,64.41,170.09Z" transform="translate(-30.05 -31.05)"/><path id="_Compound_Path_3" data-name="&lt;Compound Path&gt;" class="cls-1" d="M97.69,151.56h6.67v4.85c1.82-4.36,5.18-5.63,10.31-5.41v5.92h-.39c-5.85,0-9.93,3.91-9.93,12.67v11.09H97.69Z" transform="translate(-30.05 -31.05)"/><path id="_Compound_Path_4" data-name="&lt;Compound Path&gt;" class="cls-1" d="M117.06,151.56h7.17l7.83,20.27L140,151.56h7L135,180.9h-6Z" transform="translate(-30.05 -31.05)"/><path id="_Compound_Path_5" data-name="&lt;Compound Path&gt;" class="cls-1" d="M147,166.23v-.11c0-8.33,5.9-15.17,14.23-15.17,9.27,0,14,7.28,14,15.66,0,.61-.06,1.21-.11,1.88h-21.4c.72,4.74,4.08,7.39,8.38,7.39a10.58,10.58,0,0,0,7.89-3.48l3.92,3.48A14.73,14.73,0,0,1,162,181.34C153.51,181.34,147,175.22,147,166.23Zm21.57-2.15c-.44-4.3-3-7.67-7.39-7.67-4.08,0-7,3.14-7.56,7.67Z" transform="translate(-30.05 -31.05)"/><path id="_Compound_Path_6" data-name="&lt;Compound Path&gt;" class="cls-1" d="M210.57,142.07h7.22l11.75,19.7,11.75-19.7h7.23v38.61h-6.78V153l-12.19,19.64h-.22L217.24,153.1v27.58h-6.67Z" transform="translate(-30.05 -31.05)"/><path id="_Compound_Path_7" data-name="&lt;Compound Path&gt;" class="cls-1" d="M253.3,166.29v-.11a15.53,15.53,0,0,1,31.05-.11v.11a15.23,15.23,0,0,1-15.61,15.17A15.06,15.06,0,0,1,253.3,166.29Zm24.38,0v-.11c0-5.13-3.7-9.38-8.94-9.38S260,161,260,166.07v.11c0,5.08,3.7,9.38,8.88,9.38C274.26,175.55,277.68,171.31,277.68,166.29Z" transform="translate(-30.05 -31.05)"/><path id="_Compound_Path_8" data-name="&lt;Compound Path&gt;" class="cls-1" d="M321.68,140.42h6.67v24.05l12.08-12.91h8.11L337,163.42l12,17.27h-7.72l-8.77-12.58-4.08,4.25v8.33h-6.67Z" transform="translate(-30.05 -31.05)"/><path id="_Compound_Path_9" data-name="&lt;Compound Path&gt;" class="cls-1" d="M348.39,166.23v-.11c0-8.33,5.9-15.17,14.23-15.17,9.27,0,14,7.28,14,15.66,0,.61-.06,1.21-.11,1.88h-21.4c.72,4.74,4.08,7.39,8.38,7.39a10.57,10.57,0,0,0,7.89-3.48l3.92,3.48a14.73,14.73,0,0,1-11.91,5.46C354.9,181.34,348.39,175.22,348.39,166.23ZM370,164.08c-.44-4.3-3-7.67-7.39-7.67-4.08,0-6.95,3.14-7.56,7.67Z" transform="translate(-30.05 -31.05)"/><polygon id="_Path_" data-name="&lt;Path&gt;" class="cls-1" points="168.58 120.5 160.52 140.37 152.51 120.5 145.56 120.5 157.03 148.96 151.04 163.72 157.99 163.72 175.53 120.5 168.58 120.5"/><path id="_Compound_Path_10" data-name="&lt;Compound Path&gt;" class="cls-1" d="M414.39,152.1a4.08,4.08,0,0,0-2,.51,3.76,3.76,0,0,0-1.51,1.48,4.2,4.2,0,0,0-.53,2,4,4,0,0,0,.53,2,3.76,3.76,0,0,0,1.49,1.48,4,4,0,0,0,4,0,3.75,3.75,0,0,0,1.48-1.48,4,4,0,0,0,0-4,3.65,3.65,0,0,0-1.49-1.48,4.13,4.13,0,0,0-2-.51m0-.79a4.86,4.86,0,0,1,2.35.62,4.32,4.32,0,0,1,1.8,1.77,4.76,4.76,0,0,1,0,4.78,4.52,4.52,0,0,1-1.77,1.78,4.83,4.83,0,0,1-2.38.63,4.93,4.93,0,0,1-2.39-.63,4.52,4.52,0,0,1-1.78-1.78,4.86,4.86,0,0,1-.63-2.37,4.75,4.75,0,0,1,.65-2.4,4.37,4.37,0,0,1,1.79-1.77,4.91,4.91,0,0,1,2.36-.62" transform="translate(-30.05 -31.05)"/><g id="_Group_" data-name="&lt;Group&gt;"><path id="_Compound_Path_11" data-name="&lt;Compound Path&gt;" class="cls-1" d="M412.36,153.41h2.39a2.16,2.16,0,0,1,1.55.54,1.62,1.62,0,0,1,.44,1.16v0a1.61,1.61,0,0,1-1.27,1.62l1.45,2H415.8l-1.32-1.87H413.3v1.87h-.94Zm2.32,2.66c.67,0,1.1-.35,1.1-.9v0c0-.57-.41-.89-1.11-.89H413.3v1.8Z" transform="translate(-30.05 -31.05)"/></g><polygon id="_Path_2" data-name="&lt;Path&gt;" class="cls-1" points="369.97 120.5 361.91 140.37 353.9 120.5 346.95 120.5 358.43 148.96 352.44 163.72 359.39 163.72 376.92 120.5 369.97 120.5"/><path id="_Compound_Path_12" data-name="&lt;Compound Path&gt;" class="cls-1" d="M314.88,162.15v18.53h-6.67V164.14c0-4.52-2.26-7.11-6.23-7.11s-6.56,2.7-6.56,7.22v16.44h-6.67V151.56h6.67v3a11.48,11.48,0,0,1,9.1-3.61C311.07,151,314.88,155.36,314.88,162.15Z" transform="translate(-30.05 -31.05)"/><path id="_Compound_Path_13" data-name="&lt;Compound Path&gt;" class="cls-1" d="M271,81.77a15.18,15.18,0,0,0-3.6.45A46.41,46.41,0,0,0,230.67,48c-.8-.14-1.52-.25-2.34-.35h0c.13-4.38.34-9.45,6.79-14l-1-2.57s-12.56,3.9-14,14.66c-.63-2.93-6.49-6.59-9.39-7.28l-1.44,2.33A10.11,10.11,0,0,1,214,48h0a46.41,46.41,0,0,0-36.74,34.23,15.05,15.05,0,1,0,1.9,28.61,46.16,46.16,0,0,0,4.89,9.1l12.49-8.42-.11-.14c-3.3-4.25-5.33-10.5-5.66-16.72-.37-6.86,1.3-13.68,5.68-17.69,9-7.69,18.87-4.19,25,3.19h1.66c6.16-7.37,16-10.88,25-3.19,4.38,4,6.06,10.83,5.68,17.69-.34,6.22-2.36,12.47-5.66,16.72l-.11.14,12.49,8.42a46.16,46.16,0,0,0,4.89-9.1A15.05,15.05,0,1,0,271,81.77ZM173.4,101.26a4.44,4.44,0,0,1,0-8.88,4.48,4.48,0,0,1,2.49.77,67.47,67.47,0,0,0,.47,7A4.44,4.44,0,0,1,173.4,101.26Zm97.9,0a4.44,4.44,0,0,1-3-1.14,67.47,67.47,0,0,0,.47-7,4.43,4.43,0,0,1,6.93,3.68A4.43,4.43,0,0,1,271.3,101.26Z" transform="translate(-30.05 -31.05)"/></svg>